<mxfile host="app.diagrams.net" modified="2023-04-06T14:58:30.268Z" agent="Mozilla/5.0 (Windows NT 10.0; Win64; x64) AppleWebKit/537.36 (KHTML, like Gecko) Chrome/103.0.0.0 Safari/537.36" etag="AIBlqJgCQfR97fInRChG" version="21.1.4" type="github">
  <diagram name="第 1 页" id="TTBXimpqEGSb7tdmZf9I">
    <mxGraphModel dx="2076" dy="1158" grid="0" gridSize="10" guides="1" tooltips="1" connect="1" arrows="1" fold="1" page="1" pageScale="1" pageWidth="827" pageHeight="1169" math="0" shadow="0">
      <root>
        <mxCell id="0" />
        <mxCell id="1" parent="0" />
        <mxCell id="SKKMfjSVf2G3U56w514D-72" value="全局队列" style="rounded=1;whiteSpace=wrap;html=1;" parent="1" vertex="1">
          <mxGeometry x="162.5" y="290" width="109" height="35" as="geometry" />
        </mxCell>
        <mxCell id="SKKMfjSVf2G3U56w514D-73" value="" style="rounded=1;whiteSpace=wrap;html=1;" parent="1" vertex="1">
          <mxGeometry x="182" y="362" width="57" height="157" as="geometry" />
        </mxCell>
        <mxCell id="SKKMfjSVf2G3U56w514D-74" value="G4" style="ellipse;whiteSpace=wrap;html=1;aspect=fixed;fillColor=#B9E0A5;" parent="1" vertex="1">
          <mxGeometry x="188.5" y="418.5" width="44" height="44" as="geometry" />
        </mxCell>
        <mxCell id="SKKMfjSVf2G3U56w514D-75" value="G3" style="ellipse;whiteSpace=wrap;html=1;aspect=fixed;fillColor=#B9E0A5;" parent="1" vertex="1">
          <mxGeometry x="188.5" y="468" width="44" height="44" as="geometry" />
        </mxCell>
        <mxCell id="SKKMfjSVf2G3U56w514D-92" value="" style="edgeStyle=orthogonalEdgeStyle;curved=1;rounded=0;orthogonalLoop=1;jettySize=auto;html=1;" parent="1" source="SKKMfjSVf2G3U56w514D-76" target="SKKMfjSVf2G3U56w514D-91" edge="1">
          <mxGeometry relative="1" as="geometry" />
        </mxCell>
        <mxCell id="SKKMfjSVf2G3U56w514D-76" value="P" style="rounded=1;whiteSpace=wrap;html=1;fillColor=#FFB570;" parent="1" vertex="1">
          <mxGeometry x="187" y="542" width="47" height="48" as="geometry" />
        </mxCell>
        <mxCell id="SKKMfjSVf2G3U56w514D-81" style="edgeStyle=orthogonalEdgeStyle;rounded=0;orthogonalLoop=1;jettySize=auto;html=1;entryX=0.5;entryY=1;entryDx=0;entryDy=0;" parent="1" source="SKKMfjSVf2G3U56w514D-77" target="SKKMfjSVf2G3U56w514D-76" edge="1">
          <mxGeometry relative="1" as="geometry" />
        </mxCell>
        <mxCell id="SKKMfjSVf2G3U56w514D-77" value="M" style="triangle;whiteSpace=wrap;html=1;direction=north;fillColor=#CCE5FF;" parent="1" vertex="1">
          <mxGeometry x="179" y="630" width="63" height="41" as="geometry" />
        </mxCell>
        <mxCell id="SKKMfjSVf2G3U56w514D-82" value="" style="rounded=1;whiteSpace=wrap;html=1;dashed=1;" parent="1" vertex="1">
          <mxGeometry x="373" y="320" width="186" height="380" as="geometry" />
        </mxCell>
        <mxCell id="SKKMfjSVf2G3U56w514D-83" value="" style="rounded=1;whiteSpace=wrap;html=1;" parent="1" vertex="1">
          <mxGeometry x="405" y="370" width="57" height="157" as="geometry" />
        </mxCell>
        <mxCell id="SKKMfjSVf2G3U56w514D-84" value="P" style="rounded=1;whiteSpace=wrap;html=1;fillColor=#FFB570;" parent="1" vertex="1">
          <mxGeometry x="410" y="552" width="47" height="48" as="geometry" />
        </mxCell>
        <mxCell id="SKKMfjSVf2G3U56w514D-86" value="" style="edgeStyle=orthogonalEdgeStyle;rounded=0;orthogonalLoop=1;jettySize=auto;html=1;" parent="1" source="SKKMfjSVf2G3U56w514D-85" target="SKKMfjSVf2G3U56w514D-84" edge="1">
          <mxGeometry relative="1" as="geometry" />
        </mxCell>
        <mxCell id="SKKMfjSVf2G3U56w514D-85" value="M" style="triangle;whiteSpace=wrap;html=1;direction=north;fillColor=#CCE5FF;" parent="1" vertex="1">
          <mxGeometry x="402" y="649" width="63" height="41" as="geometry" />
        </mxCell>
        <mxCell id="SKKMfjSVf2G3U56w514D-89" style="edgeStyle=orthogonalEdgeStyle;curved=1;rounded=0;orthogonalLoop=1;jettySize=auto;html=1;entryX=-0.041;entryY=0.798;entryDx=0;entryDy=0;entryPerimeter=0;" parent="1" source="SKKMfjSVf2G3U56w514D-74" target="SKKMfjSVf2G3U56w514D-83" edge="1">
          <mxGeometry relative="1" as="geometry">
            <Array as="points">
              <mxPoint x="403" y="441" />
            </Array>
          </mxGeometry>
        </mxCell>
        <mxCell id="SKKMfjSVf2G3U56w514D-91" value="G2" style="ellipse;whiteSpace=wrap;html=1;fillColor=#97D077;rounded=1;" parent="1" vertex="1">
          <mxGeometry x="289" y="543.5" width="46.5" height="45" as="geometry" />
        </mxCell>
        <mxCell id="SKKMfjSVf2G3U56w514D-93" value="P&lt;br&gt;的&lt;br&gt;本&lt;br&gt;地&lt;br&gt;列&lt;br&gt;队" style="text;html=1;strokeColor=none;fillColor=#FFCE9F;align=center;verticalAlign=middle;whiteSpace=wrap;rounded=1;glass=0;shadow=0;" parent="1" vertex="1">
          <mxGeometry x="142" y="368" width="31" height="140" as="geometry" />
        </mxCell>
      </root>
    </mxGraphModel>
  </diagram>
</mxfile>
